<svg xmlns="http://www.w3.org/2000/svg" xmlns:xlink="http://www.w3.org/1999/xlink" width="500" zoomAndPan="magnify" viewBox="0 0 375 374.999991" height="500" preserveAspectRatio="xMidYMid meet" version="1.0"><defs><g/><clipPath id="9e45e516cb"><path d="M 149.109375 127.269531 L 163.273438 127.269531 L 163.273438 138.707031 L 149.109375 138.707031 Z M 149.109375 127.269531 " clip-rule="nonzero"/></clipPath><clipPath id="8d40016945"><path d="M 156.1875 127.269531 C 152.277344 127.269531 149.109375 129.828125 149.109375 132.988281 C 149.109375 136.144531 152.277344 138.707031 156.1875 138.707031 C 160.09375 138.707031 163.261719 136.144531 163.261719 132.988281 C 163.261719 129.828125 160.09375 127.269531 156.1875 127.269531 Z M 156.1875 127.269531 " clip-rule="nonzero"/></clipPath></defs><g fill="#8e6d4e" fill-opacity="1"><g transform="translate(76.671436, 226.593852)"><g><path d="M 17.457031 -76.789062 L 40.847656 -1.941406 L 42.101562 -1.941406 L 65.378906 -76.671875 L 78.15625 -10.726562 C 78.957031 -6.503906 79.527344 -2.964844 78.957031 0 L 92.988281 0 C 91.164062 -4.679688 90.136719 -9.46875 89.222656 -14.375 L 76.558594 -79.867188 L 64.808594 -79.867188 L 46.550781 -21.335938 L 28.296875 -79.867188 L 16.542969 -79.867188 L 3.535156 -12.550781 C 2.28125 -5.820312 0 0 0 0 L 7.53125 0 C 7.53125 0 4.679688 -10.496094 6.730469 -20.765625 Z M 17.457031 -76.789062 "/></g></g></g><g fill="#8e6d4e" fill-opacity="1"><g transform="translate(161.313232, 226.593852)"><g><path d="M 12.777344 -12.550781 C 12.777344 -34.457031 12.894531 -56.363281 12.894531 -78.269531 L 29.4375 -78.269531 C 42.332031 -78.269531 52.027344 -74.621094 52.027344 -59.671875 C 52.027344 -44.382812 41.074219 -43.242188 30.234375 -37.539062 C 25.214844 -34.914062 20.878906 -31.605469 20.539062 -26.699219 C 21.109375 -28.410156 22.25 -30.121094 23.503906 -31.492188 C 26.699219 -34.6875 31.035156 -35.257812 33.542969 -30.921875 L 48.605469 -4.335938 C 50.203125 -1.484375 51.570312 0 55.109375 0 L 65.605469 0 C 63.4375 -2.394531 58.875 -9.925781 56.707031 -13.804688 L 45.753906 -33.089844 C 44.042969 -36.167969 43.015625 -36.511719 39.59375 -36.511719 L 33.316406 -36.511719 C 37.308594 -37.765625 41.644531 -38.679688 45.410156 -39.707031 C 55.679688 -42.445312 64.464844 -46.894531 64.464844 -59.671875 C 64.464844 -73.363281 53.167969 -79.867188 40.503906 -79.867188 L 0 -79.867188 C 0 -79.867188 1.140625 -74.050781 1.140625 -67.316406 L 1.140625 -12.550781 C 1.140625 -5.820312 0 0 0 0 L 13.917969 0 C 13.917969 0 12.777344 -5.820312 12.777344 -12.550781 Z M 12.777344 -12.550781 "/></g></g></g><g fill="#8e6d4e" fill-opacity="1"><g transform="translate(67.316724, 249.538522)"><g><path d="M 1.171875 -8.296875 L 2.125 -8.296875 L 5.140625 -3.765625 L 8.15625 -8.296875 L 9.109375 -8.296875 L 9.109375 0 L 8.171875 0 L 8.171875 -6.71875 L 5.15625 -2.28125 L 5.109375 -2.28125 L 2.078125 -6.703125 L 2.078125 0 L 1.171875 0 Z M 1.171875 -8.296875 "/></g></g></g><g fill="#8e6d4e" fill-opacity="1"><g transform="translate(81.372212, 249.538522)"><g><path d="M 4.234375 -8.34375 L 5.109375 -8.34375 L 8.890625 0 L 7.890625 0 L 6.921875 -2.1875 L 2.40625 -2.1875 L 1.421875 0 L 0.46875 0 Z M 6.546875 -3.03125 L 4.671875 -7.265625 L 2.765625 -3.03125 Z M 6.546875 -3.03125 "/></g></g></g><g fill="#8e6d4e" fill-opacity="1"><g transform="translate(94.504226, 249.538522)"><g><path d="M 1.171875 -8.296875 L 4.734375 -8.296875 C 5.242188 -8.296875 5.695312 -8.222656 6.09375 -8.078125 C 6.5 -7.929688 6.832031 -7.726562 7.09375 -7.46875 C 7.300781 -7.257812 7.457031 -7.015625 7.5625 -6.734375 C 7.675781 -6.460938 7.734375 -6.160156 7.734375 -5.828125 L 7.734375 -5.796875 C 7.734375 -5.453125 7.675781 -5.144531 7.5625 -4.875 C 7.457031 -4.601562 7.300781 -4.363281 7.09375 -4.15625 C 6.894531 -3.957031 6.65625 -3.789062 6.375 -3.65625 C 6.101562 -3.53125 5.804688 -3.441406 5.484375 -3.390625 L 8.03125 0 L 6.875 0 L 4.484375 -3.21875 L 2.109375 -3.21875 L 2.109375 0 L 1.171875 0 Z M 4.65625 -4.0625 C 4.957031 -4.0625 5.238281 -4.097656 5.5 -4.171875 C 5.757812 -4.253906 5.984375 -4.367188 6.171875 -4.515625 C 6.367188 -4.660156 6.519531 -4.835938 6.625 -5.046875 C 6.726562 -5.253906 6.78125 -5.492188 6.78125 -5.765625 L 6.78125 -5.796875 C 6.78125 -6.304688 6.59375 -6.703125 6.21875 -6.984375 C 5.851562 -7.273438 5.335938 -7.421875 4.671875 -7.421875 L 2.109375 -7.421875 L 2.109375 -4.0625 Z M 4.65625 -4.0625 "/></g></g></g><g fill="#8e6d4e" fill-opacity="1"><g transform="translate(106.842999, 249.538522)"><g><path d="M 5.015625 0.140625 C 4.359375 0.140625 3.769531 0.03125 3.25 -0.1875 C 2.738281 -0.40625 2.300781 -0.707031 1.9375 -1.09375 C 1.570312 -1.488281 1.289062 -1.941406 1.09375 -2.453125 C 0.90625 -2.972656 0.8125 -3.53125 0.8125 -4.125 L 0.8125 -4.140625 C 0.8125 -4.710938 0.910156 -5.253906 1.109375 -5.765625 C 1.304688 -6.285156 1.585938 -6.742188 1.953125 -7.140625 C 2.316406 -7.535156 2.753906 -7.847656 3.265625 -8.078125 C 3.773438 -8.316406 4.34375 -8.4375 4.96875 -8.4375 C 5.3125 -8.4375 5.625 -8.410156 5.90625 -8.359375 C 6.195312 -8.316406 6.46875 -8.242188 6.71875 -8.140625 C 6.96875 -8.046875 7.203125 -7.929688 7.421875 -7.796875 C 7.640625 -7.660156 7.847656 -7.503906 8.046875 -7.328125 L 7.453125 -6.625 C 7.296875 -6.757812 7.128906 -6.882812 6.953125 -7 C 6.773438 -7.113281 6.585938 -7.210938 6.390625 -7.296875 C 6.191406 -7.378906 5.96875 -7.441406 5.71875 -7.484375 C 5.476562 -7.535156 5.210938 -7.5625 4.921875 -7.5625 C 4.460938 -7.5625 4.039062 -7.46875 3.65625 -7.28125 C 3.269531 -7.101562 2.9375 -6.859375 2.65625 -6.546875 C 2.382812 -6.242188 2.171875 -5.882812 2.015625 -5.46875 C 1.859375 -5.0625 1.78125 -4.628906 1.78125 -4.171875 L 1.78125 -4.140625 C 1.78125 -3.648438 1.851562 -3.191406 2 -2.765625 C 2.15625 -2.347656 2.375 -1.984375 2.65625 -1.671875 C 2.945312 -1.367188 3.289062 -1.128906 3.6875 -0.953125 C 4.09375 -0.785156 4.550781 -0.703125 5.0625 -0.703125 C 5.53125 -0.703125 5.972656 -0.78125 6.390625 -0.9375 C 6.804688 -1.101562 7.160156 -1.300781 7.453125 -1.53125 L 7.453125 -3.59375 L 4.921875 -3.59375 L 4.921875 -4.421875 L 8.34375 -4.421875 L 8.34375 -1.125 C 7.957031 -0.78125 7.484375 -0.484375 6.921875 -0.234375 C 6.359375 0.015625 5.722656 0.140625 5.015625 0.140625 Z M 5.015625 0.140625 "/></g></g></g><g fill="#8e6d4e" fill-opacity="1"><g transform="translate(119.903978, 249.538522)"><g><path d="M 4.234375 -8.34375 L 5.109375 -8.34375 L 8.890625 0 L 7.890625 0 L 6.921875 -2.1875 L 2.40625 -2.1875 L 1.421875 0 L 0.46875 0 Z M 6.546875 -3.03125 L 4.671875 -7.265625 L 2.765625 -3.03125 Z M 6.546875 -3.03125 "/></g></g></g><g fill="#8e6d4e" fill-opacity="1"><g transform="translate(133.035991, 249.538522)"><g><path d="M 1.171875 -8.296875 L 4.734375 -8.296875 C 5.242188 -8.296875 5.695312 -8.222656 6.09375 -8.078125 C 6.5 -7.929688 6.832031 -7.726562 7.09375 -7.46875 C 7.300781 -7.257812 7.457031 -7.015625 7.5625 -6.734375 C 7.675781 -6.460938 7.734375 -6.160156 7.734375 -5.828125 L 7.734375 -5.796875 C 7.734375 -5.453125 7.675781 -5.144531 7.5625 -4.875 C 7.457031 -4.601562 7.300781 -4.363281 7.09375 -4.15625 C 6.894531 -3.957031 6.65625 -3.789062 6.375 -3.65625 C 6.101562 -3.53125 5.804688 -3.441406 5.484375 -3.390625 L 8.03125 0 L 6.875 0 L 4.484375 -3.21875 L 2.109375 -3.21875 L 2.109375 0 L 1.171875 0 Z M 4.65625 -4.0625 C 4.957031 -4.0625 5.238281 -4.097656 5.5 -4.171875 C 5.757812 -4.253906 5.984375 -4.367188 6.171875 -4.515625 C 6.367188 -4.660156 6.519531 -4.835938 6.625 -5.046875 C 6.726562 -5.253906 6.78125 -5.492188 6.78125 -5.765625 L 6.78125 -5.796875 C 6.78125 -6.304688 6.59375 -6.703125 6.21875 -6.984375 C 5.851562 -7.273438 5.335938 -7.421875 4.671875 -7.421875 L 2.109375 -7.421875 L 2.109375 -4.0625 Z M 4.65625 -4.0625 "/></g></g></g><g fill="#8e6d4e" fill-opacity="1"><g transform="translate(145.374762, 249.538522)"><g><path d="M 1.25 -8.296875 L 2.1875 -8.296875 L 2.1875 0 L 1.25 0 Z M 1.25 -8.296875 "/></g></g></g><g fill="#8e6d4e" fill-opacity="1"><g transform="translate(152.598886, 249.538522)"><g><path d="M 1.171875 -8.296875 L 4.046875 -8.296875 C 4.691406 -8.296875 5.285156 -8.1875 5.828125 -7.96875 C 6.367188 -7.757812 6.832031 -7.46875 7.21875 -7.09375 C 7.613281 -6.726562 7.914062 -6.296875 8.125 -5.796875 C 8.34375 -5.296875 8.453125 -4.753906 8.453125 -4.171875 L 8.453125 -4.140625 C 8.453125 -3.554688 8.34375 -3.007812 8.125 -2.5 C 7.914062 -2 7.613281 -1.5625 7.21875 -1.1875 C 6.832031 -0.820312 6.367188 -0.53125 5.828125 -0.3125 C 5.285156 -0.101562 4.691406 0 4.046875 0 L 1.171875 0 Z M 2.109375 -7.421875 L 2.109375 -0.859375 L 4.046875 -0.859375 C 4.566406 -0.859375 5.039062 -0.941406 5.46875 -1.109375 C 5.894531 -1.273438 6.253906 -1.503906 6.546875 -1.796875 C 6.847656 -2.085938 7.078125 -2.429688 7.234375 -2.828125 C 7.398438 -3.234375 7.484375 -3.664062 7.484375 -4.125 L 7.484375 -4.140625 C 7.484375 -4.597656 7.398438 -5.023438 7.234375 -5.421875 C 7.078125 -5.828125 6.847656 -6.175781 6.546875 -6.46875 C 6.253906 -6.769531 5.894531 -7.003906 5.46875 -7.171875 C 5.039062 -7.335938 4.566406 -7.421875 4.046875 -7.421875 Z M 2.109375 -7.421875 "/></g></g></g><g fill="#8e6d4e" fill-opacity="1"><g transform="translate(165.636176, 249.538522)"><g><path d="M 4.234375 -8.34375 L 5.109375 -8.34375 L 8.890625 0 L 7.890625 0 L 6.921875 -2.1875 L 2.40625 -2.1875 L 1.421875 0 L 0.46875 0 Z M 6.546875 -3.03125 L 4.671875 -7.265625 L 2.765625 -3.03125 Z M 6.546875 -3.03125 "/></g></g></g><g fill="#8e6d4e" fill-opacity="1"><g transform="translate(178.76819, 249.538522)"><g><path d="M 0.765625 -4.03125 L 4.0625 -4.03125 L 4.0625 -3.078125 L 0.765625 -3.078125 Z M 0.765625 -4.03125 "/></g></g></g><g fill="#8e6d4e" fill-opacity="1"><g transform="translate(187.377529, 249.538522)"><g><path d="M 1.171875 -8.296875 L 4.734375 -8.296875 C 5.242188 -8.296875 5.695312 -8.222656 6.09375 -8.078125 C 6.5 -7.929688 6.832031 -7.726562 7.09375 -7.46875 C 7.300781 -7.257812 7.457031 -7.015625 7.5625 -6.734375 C 7.675781 -6.460938 7.734375 -6.160156 7.734375 -5.828125 L 7.734375 -5.796875 C 7.734375 -5.453125 7.675781 -5.144531 7.5625 -4.875 C 7.457031 -4.601562 7.300781 -4.363281 7.09375 -4.15625 C 6.894531 -3.957031 6.65625 -3.789062 6.375 -3.65625 C 6.101562 -3.53125 5.804688 -3.441406 5.484375 -3.390625 L 8.03125 0 L 6.875 0 L 4.484375 -3.21875 L 2.109375 -3.21875 L 2.109375 0 L 1.171875 0 Z M 4.65625 -4.0625 C 4.957031 -4.0625 5.238281 -4.097656 5.5 -4.171875 C 5.757812 -4.253906 5.984375 -4.367188 6.171875 -4.515625 C 6.367188 -4.660156 6.519531 -4.835938 6.625 -5.046875 C 6.726562 -5.253906 6.78125 -5.492188 6.78125 -5.765625 L 6.78125 -5.796875 C 6.78125 -6.304688 6.59375 -6.703125 6.21875 -6.984375 C 5.851562 -7.273438 5.335938 -7.421875 4.671875 -7.421875 L 2.109375 -7.421875 L 2.109375 -4.0625 Z M 4.65625 -4.0625 "/></g></g></g><g fill="#8e6d4e" fill-opacity="1"><g transform="translate(199.716299, 249.538522)"><g><path d="M 5.015625 0.140625 C 4.390625 0.140625 3.816406 0.0234375 3.296875 -0.203125 C 2.773438 -0.429688 2.328125 -0.738281 1.953125 -1.125 C 1.585938 -1.519531 1.304688 -1.972656 1.109375 -2.484375 C 0.910156 -3.003906 0.8125 -3.550781 0.8125 -4.125 L 0.8125 -4.140625 C 0.8125 -4.710938 0.910156 -5.257812 1.109375 -5.78125 C 1.316406 -6.300781 1.601562 -6.753906 1.96875 -7.140625 C 2.34375 -7.535156 2.789062 -7.847656 3.3125 -8.078125 C 3.832031 -8.316406 4.410156 -8.4375 5.046875 -8.4375 C 5.679688 -8.4375 6.253906 -8.320312 6.765625 -8.09375 C 7.285156 -7.863281 7.726562 -7.550781 8.09375 -7.15625 C 8.46875 -6.769531 8.753906 -6.316406 8.953125 -5.796875 C 9.160156 -5.273438 9.265625 -4.734375 9.265625 -4.171875 L 9.265625 -4.140625 C 9.265625 -3.578125 9.160156 -3.035156 8.953125 -2.515625 C 8.742188 -1.992188 8.453125 -1.535156 8.078125 -1.140625 C 7.710938 -0.753906 7.269531 -0.441406 6.75 -0.203125 C 6.226562 0.0234375 5.648438 0.140625 5.015625 0.140625 Z M 5.046875 -0.71875 C 5.515625 -0.71875 5.945312 -0.804688 6.34375 -0.984375 C 6.75 -1.160156 7.09375 -1.398438 7.375 -1.703125 C 7.664062 -2.015625 7.890625 -2.375 8.046875 -2.78125 C 8.210938 -3.195312 8.296875 -3.644531 8.296875 -4.125 L 8.296875 -4.140625 C 8.296875 -4.617188 8.210938 -5.0625 8.046875 -5.46875 C 7.890625 -5.882812 7.660156 -6.242188 7.359375 -6.546875 C 7.066406 -6.859375 6.722656 -7.101562 6.328125 -7.28125 C 5.929688 -7.46875 5.492188 -7.5625 5.015625 -7.5625 C 4.546875 -7.5625 4.109375 -7.472656 3.703125 -7.296875 C 3.304688 -7.117188 2.96875 -6.875 2.6875 -6.5625 C 2.40625 -6.257812 2.179688 -5.898438 2.015625 -5.484375 C 1.859375 -5.078125 1.78125 -4.640625 1.78125 -4.171875 L 1.78125 -4.140625 C 1.78125 -3.671875 1.859375 -3.226562 2.015625 -2.8125 C 2.179688 -2.394531 2.410156 -2.03125 2.703125 -1.71875 C 2.992188 -1.414062 3.335938 -1.171875 3.734375 -0.984375 C 4.128906 -0.804688 4.566406 -0.71875 5.046875 -0.71875 Z M 5.046875 -0.71875 "/></g></g></g><g fill="#8e6d4e" fill-opacity="1"><g transform="translate(213.558681, 249.538522)"><g><path d="M 1.171875 -8.296875 L 2.125 -8.296875 L 5.140625 -3.765625 L 8.15625 -8.296875 L 9.109375 -8.296875 L 9.109375 0 L 8.171875 0 L 8.171875 -6.71875 L 5.15625 -2.28125 L 5.109375 -2.28125 L 2.078125 -6.703125 L 2.078125 0 L 1.171875 0 Z M 1.171875 -8.296875 "/></g></g></g><g fill="#8e6d4e" fill-opacity="1"><g transform="translate(227.614168, 249.538522)"><g><path d="M 4.234375 -8.34375 L 5.109375 -8.34375 L 8.890625 0 L 7.890625 0 L 6.921875 -2.1875 L 2.40625 -2.1875 L 1.421875 0 L 0.46875 0 Z M 6.546875 -3.03125 L 4.671875 -7.265625 L 2.765625 -3.03125 Z M 6.546875 -3.03125 "/></g></g></g><g fill="#8e6d4e" fill-opacity="1"><g transform="translate(240.746182, 249.538522)"><g><path d="M 0.765625 -4.03125 L 4.0625 -4.03125 L 4.0625 -3.078125 L 0.765625 -3.078125 Z M 0.765625 -4.03125 "/></g></g></g><g fill="#8e6d4e" fill-opacity="1"><g transform="translate(249.355521, 249.538522)"><g><path d="M 1.171875 -8.296875 L 2.046875 -8.296875 L 7.265625 -1.640625 L 7.265625 -8.296875 L 8.1875 -8.296875 L 8.1875 0 L 7.4375 0 L 2.078125 -6.796875 L 2.078125 0 L 1.171875 0 Z M 1.171875 -8.296875 "/></g></g></g><g fill="#8e6d4e" fill-opacity="1"><g transform="translate(262.487534, 249.538522)"><g><path d="M 4.484375 0.125 C 3.972656 0.125 3.503906 0.0507812 3.078125 -0.09375 C 2.660156 -0.25 2.300781 -0.476562 2 -0.78125 C 1.695312 -1.09375 1.460938 -1.472656 1.296875 -1.921875 C 1.128906 -2.367188 1.046875 -2.882812 1.046875 -3.46875 L 1.046875 -8.296875 L 1.984375 -8.296875 L 1.984375 -3.53125 C 1.984375 -2.625 2.203125 -1.929688 2.640625 -1.453125 C 3.085938 -0.972656 3.710938 -0.734375 4.515625 -0.734375 C 5.273438 -0.734375 5.878906 -0.960938 6.328125 -1.421875 C 6.785156 -1.878906 7.015625 -2.5625 7.015625 -3.46875 L 7.015625 -8.296875 L 7.953125 -8.296875 L 7.953125 -3.546875 C 7.953125 -2.929688 7.867188 -2.394531 7.703125 -1.9375 C 7.535156 -1.476562 7.296875 -1.09375 6.984375 -0.78125 C 6.679688 -0.476562 6.316406 -0.25 5.890625 -0.09375 C 5.472656 0.0507812 5.003906 0.125 4.484375 0.125 Z M 4.484375 0.125 "/></g></g></g><g fill="#8e6d4e" fill-opacity="1"><g transform="translate(275.252534, 249.538522)"><g><path d="M 1.171875 -8.296875 L 2.046875 -8.296875 L 7.265625 -1.640625 L 7.265625 -8.296875 L 8.1875 -8.296875 L 8.1875 0 L 7.4375 0 L 2.078125 -6.796875 L 2.078125 0 L 1.171875 0 Z M 1.171875 -8.296875 "/></g></g></g><g fill="#8e6d4e" fill-opacity="1"><g transform="translate(288.384547, 249.538522)"><g><path d="M 1.171875 -8.296875 L 7.171875 -8.296875 L 7.171875 -7.4375 L 2.109375 -7.4375 L 2.109375 -4.609375 L 6.625 -4.609375 L 6.625 -3.75 L 2.109375 -3.75 L 2.109375 -0.859375 L 7.21875 -0.859375 L 7.21875 0 L 1.171875 0 Z M 1.171875 -8.296875 "/></g></g></g><g fill="#8e6d4e" fill-opacity="1"><g transform="translate(300.095823, 249.538522)"><g><path d="M 4.015625 0.125 C 3.347656 0.125 2.738281 0.015625 2.1875 -0.203125 C 1.644531 -0.421875 1.125 -0.753906 0.625 -1.203125 L 1.203125 -1.890625 C 1.640625 -1.492188 2.078125 -1.195312 2.515625 -1 C 2.960938 -0.8125 3.472656 -0.71875 4.046875 -0.71875 C 4.609375 -0.71875 5.054688 -0.847656 5.390625 -1.109375 C 5.722656 -1.378906 5.890625 -1.71875 5.890625 -2.125 L 5.890625 -2.15625 C 5.890625 -2.34375 5.859375 -2.515625 5.796875 -2.671875 C 5.734375 -2.828125 5.625 -2.96875 5.46875 -3.09375 C 5.3125 -3.21875 5.09375 -3.332031 4.8125 -3.4375 C 4.53125 -3.539062 4.175781 -3.640625 3.75 -3.734375 C 3.269531 -3.835938 2.851562 -3.953125 2.5 -4.078125 C 2.15625 -4.210938 1.867188 -4.375 1.640625 -4.5625 C 1.410156 -4.757812 1.238281 -4.984375 1.125 -5.234375 C 1.007812 -5.484375 0.953125 -5.78125 0.953125 -6.125 L 0.953125 -6.140625 C 0.953125 -6.460938 1.019531 -6.765625 1.15625 -7.046875 C 1.289062 -7.328125 1.476562 -7.566406 1.71875 -7.765625 C 1.96875 -7.960938 2.257812 -8.117188 2.59375 -8.234375 C 2.925781 -8.347656 3.289062 -8.40625 3.6875 -8.40625 C 4.289062 -8.40625 4.816406 -8.320312 5.265625 -8.15625 C 5.722656 -7.988281 6.164062 -7.734375 6.59375 -7.390625 L 6.046875 -6.671875 C 5.660156 -6.984375 5.269531 -7.207031 4.875 -7.34375 C 4.488281 -7.488281 4.082031 -7.5625 3.65625 -7.5625 C 3.113281 -7.5625 2.679688 -7.429688 2.359375 -7.171875 C 2.046875 -6.921875 1.890625 -6.609375 1.890625 -6.234375 L 1.890625 -6.203125 C 1.890625 -6.003906 1.921875 -5.828125 1.984375 -5.671875 C 2.046875 -5.523438 2.160156 -5.382812 2.328125 -5.25 C 2.492188 -5.125 2.722656 -5.003906 3.015625 -4.890625 C 3.304688 -4.785156 3.679688 -4.6875 4.140625 -4.59375 C 5.066406 -4.382812 5.75 -4.097656 6.1875 -3.734375 C 6.625 -3.378906 6.84375 -2.882812 6.84375 -2.25 L 6.84375 -2.234375 C 6.84375 -1.867188 6.769531 -1.539062 6.625 -1.25 C 6.488281 -0.96875 6.296875 -0.722656 6.046875 -0.515625 C 5.796875 -0.316406 5.492188 -0.160156 5.140625 -0.046875 C 4.796875 0.0664062 4.421875 0.125 4.015625 0.125 Z M 4.015625 0.125 "/></g></g></g><g fill="#8e6d4e" fill-opacity="1"><g transform="translate(219.730142, 227.255419)"><g><path d="M 13.691406 -78.558594 L 0 -78.558594 L 1.121094 -76.875 L 1.121094 -12.34375 C 1.121094 -5.722656 0 0 0 0 L 7.40625 0 C 7.40625 0 2.582031 -10.324219 2.582031 -20.425781 L 2.582031 -74.40625 L 50.054688 0 L 63.746094 0 L 62.621094 -1.683594 L 62.621094 -66.214844 C 62.621094 -72.835938 63.746094 -78.558594 63.746094 -78.558594 L 56.335938 -78.558594 C 56.335938 -78.558594 61.164062 -68.234375 61.164062 -58.132812 L 61.164062 -4.152344 Z M 13.691406 -78.558594 "/></g></g></g><g clip-path="url(#9e45e516cb)"><g clip-path="url(#8d40016945)"><path fill="#8e6d4e" d="M 149.109375 127.269531 L 163.273438 127.269531 L 163.273438 138.707031 L 149.109375 138.707031 Z M 149.109375 127.269531 " fill-opacity="1" fill-rule="nonzero"/></g></g></svg>